<svg width="16" height="21" viewBox="0 0 16 21" fill="none" xmlns="http://www.w3.org/2000/svg">
<path d="M7.75003 0C4.47859 0.00385544 1.8275 2.54796 1.82349 5.68747V9.18744C1.82349 9.42906 2.02761 9.62495 2.27939 9.62495H4.10295C4.35473 9.62495 4.55885 9.42906 4.55885 9.18744V5.68747C4.55881 3.99608 5.98759 2.62498 7.75003 2.62498C9.51248 2.62498 10.9413 3.99608 10.9413 5.68747V9.18744C10.9413 9.42906 11.1454 9.62495 11.3972 9.62495H13.2207C13.4725 9.62495 13.6766 9.42906 13.6766 9.18744V5.68747C13.6726 2.54796 11.0215 0.00385544 7.75003 0Z" fill="#333333"/>
<path d="M2.27941 8.75H13.2207C14.4795 8.75 15.5001 9.72938 15.5001 10.9375V18.8125C15.5001 20.0207 14.4795 21.0001 13.2207 21.0001H2.27941C1.02053 21.0001 0 20.0207 0 18.8126V10.9375C0 9.72938 1.02053 8.75 2.27941 8.75Z" fill="#FFA41D"/>
<path d="M10.0295 13.562C10.0348 12.3538 9.01854 11.3703 7.75965 11.3653C6.50075 11.3602 5.4759 12.3354 5.4706 13.5435C5.46693 14.3786 5.95899 15.1428 6.73886 15.5132L6.38689 17.8757C6.35163 18.1149 6.52516 18.3363 6.77446 18.3701C6.79557 18.373 6.8169 18.3744 6.83822 18.3744H8.66179C8.91357 18.3769 9.11975 18.183 9.12227 17.9414C9.12248 17.9191 9.12099 17.8968 9.11765 17.8748L8.76569 15.5123C9.53603 15.1424 10.0245 14.3885 10.0295 13.562Z" fill="#333333"/>
</svg>
