<svg width="586" height="926" viewBox="0 0 586 926" fill="none" xmlns="http://www.w3.org/2000/svg">
<path d="M297.934 388.534C295.426 385.907 292.943 383.243 290.399 380.639C286.402 376.414 281.063 373.709 275.292 372.984C266.173 371.784 257.054 370.476 247.911 369.444C234.856 367.968 221.753 366.936 208.867 364.225C205.795 363.589 202.867 362.365 199.819 361.429C198.548 361.045 197.264 360.685 195.98 360.349C194.216 359.881 192.38 359.593 190.7 358.957C181.151 355.459 171.309 352.817 161.291 351.062C149.604 348.926 139.177 343.635 128.99 337.791C124.454 335.187 123.111 330.928 122.679 326.176C122.587 325.062 122.828 323.945 123.37 322.967C123.913 321.989 124.733 321.193 125.726 320.681C126.948 319.924 128.305 319.411 129.722 319.169C136.849 318.065 144.037 317.345 151.176 318.857C154.433 319.657 157.639 320.655 160.775 321.845C166.403 323.776 171.934 325.972 177.574 327.676C183.593 329.45 189.979 329.574 196.064 328.036C197.824 327.589 199.496 326.847 201.007 325.84C201.544 325.512 202 325.067 202.34 324.537C202.68 324.008 202.896 323.408 202.971 322.784C203.046 322.159 202.979 321.525 202.774 320.93C202.568 320.335 202.231 319.795 201.787 319.349C201.099 318.544 200.322 317.82 199.471 317.189C191.132 310.694 181.923 305.399 172.114 301.459C168.358 299.97 164.347 299.233 160.307 299.287C155.41 299.313 150.532 298.663 145.812 297.355C139.098 295.648 132.124 295.2 125.246 296.035C118.587 296.767 111.964 297.895 105.316 298.843C104.932 298.843 104.56 298.987 104.116 299.011C99.3168 299.419 94.6253 299.095 91.4935 294.331C89.7596 294.881 88.0572 295.526 86.394 296.263C76.7149 301.167 67.0758 306.13 57.4767 311.154C51.4701 314.276 46.4202 318.965 42.8621 324.724C38.7705 331.324 34.8108 338.019 31.0672 344.81C26.0877 353.846 24.3478 363.685 24.2158 373.932C24.1986 388.066 26.7561 402.086 31.7631 415.304C35.8068 426.499 41.6382 436.698 47.8056 446.777C71.6474 485.761 98.9688 522.214 128.198 557.251C147.396 580.252 167.254 602.666 188.253 624.048C198.435 634.244 209.551 643.464 221.453 651.586C229.565 657.225 237.388 663.309 244.983 669.584C264.186 685.531 284.473 700.125 305.698 713.26C318.572 721.251 331.111 729.806 343.59 738.458C357.663 748.375 373.47 755.567 390.194 759.66C397.393 761.363 403.836 760.967 409.932 756.708C413.315 754.308 416.759 752.088 420.083 749.665C422.222 748.002 423.821 745.743 424.678 743.173C426.404 738.988 427.277 734.501 427.246 729.974C426.874 718.947 426.454 707.92 425.914 696.893C425.314 684.439 424.414 671.996 423.91 659.529C423.371 645.91 423.203 632.28 422.711 618.661C422.131 603.013 419.496 587.51 414.875 572.549C402.768 532.509 389.582 492.829 374.835 453.676C370.851 443.081 366.364 432.678 362.392 422.083C357.878 410.345 354.267 398.279 351.593 385.991C350.373 380.167 349.655 374.25 349.445 368.304C349.253 363.993 348.833 359.696 348.186 355.429C347.352 350.291 345.33 345.418 342.282 341.199C336.181 332.534 328.302 325.269 319.172 319.889C309.998 314.277 300.191 309.774 289.955 306.474C277.32 302.442 265.897 295.915 255.026 288.476C242.403 279.837 230.897 269.805 219.354 259.81C211.674 253.151 203.755 246.72 195.92 240.288C193.897 238.449 191.491 237.08 188.876 236.281L186.093 239.064C186.957 234.949 188.229 234.169 191.18 235.717C193.162 236.716 195.033 237.922 196.76 239.316C205.423 246.444 214.042 253.643 222.617 260.914C233.584 270.249 244.551 279.585 256.574 287.564C268.091 295.385 280.692 301.477 293.975 305.646C306.33 309.348 317.935 315.201 328.255 322.937C332.339 326.119 336.17 329.614 339.714 333.388C347.91 341.787 351.713 352.13 352.397 363.781C352.603 371.358 353.478 378.903 355.013 386.327C358.17 399.583 362.231 412.609 367.168 425.311C372.627 439.554 378.567 453.616 383.75 467.943C396.457 503.04 408.3 538.412 418.883 574.205C424.21 592.203 426.406 610.634 426.694 629.328C427.03 650.926 427.726 672.524 429.022 694.062C429.646 704.309 430.042 714.568 430.462 724.827C430.522 727.321 430.45 729.816 430.246 732.302C429.622 741.313 426.082 748.825 418.463 753.996C414.263 756.84 409.908 759.48 405.54 762.059C402.486 763.759 398.93 764.329 395.497 763.667C381.121 761.552 367.294 756.662 354.785 749.269C348.929 745.801 343.362 741.853 337.663 738.122C324.74 729.65 311.961 720.963 298.882 712.756C281.033 701.638 263.919 689.382 247.647 676.063C236.908 667.22 226.049 658.605 214.458 650.782C203.926 643.543 194.157 635.254 185.301 626.04C184.437 625.152 183.537 624.312 182.205 622.992C181.989 625.188 181.809 626.832 181.689 628.488C181.053 637.091 178.497 645.214 175.81 653.338C170.89 668.144 163.127 681.463 154.572 694.362C144.637 709.324 133.898 723.699 122.979 737.954C109.192 755.976 95.6332 774.094 83.9942 793.592C65.024 825.569 49.5095 859.058 39.6944 895.079C36.9946 904.966 33.503 914.637 30.3593 924.404C30.1867 925.051 29.7916 925.616 29.2434 926C29.6513 923.96 30.1073 921.92 30.4433 919.869C34.0755 900.144 39.4562 880.781 46.5218 862.01C52.6892 845.428 60.7164 829.709 68.7797 814.015C81.0545 790.101 96.3171 768.119 112.372 746.653C122.835 732.674 133.586 718.911 144.001 704.885C152.4 693.558 160.499 681.967 166.894 669.344C172.413 658.789 176.531 647.559 179.145 635.939C180.045 631.74 180.261 627.396 180.861 623.124C181.077 621.625 180.117 620.857 179.277 619.957C171.466 611.617 163.499 603.422 155.904 594.891C123.507 558.438 92.4295 520.846 65.108 480.35C55.6649 466.359 46.6657 452.044 38.0385 437.538C29.2952 422.578 23.6746 406.002 21.5161 388.81C20.0687 378.808 20.361 368.632 22.38 358.729C23.8154 352.555 26.0373 346.591 28.9914 340.983C32.4541 333.913 36.4912 327.138 41.0623 320.729C44.359 316.105 48.4942 312.141 53.2531 309.042C63.505 302.436 74.3898 296.869 85.7461 292.423C86.946 291.967 88.1459 291.643 89.4657 291.223C89.4657 290.804 89.4657 290.36 89.4657 289.94C89.272 289.034 89.371 288.091 89.7485 287.245C90.1259 286.4 90.7622 285.696 91.5655 285.236C93.0914 284.256 94.7765 283.549 96.5451 283.148C100.697 282.416 104.944 281.948 109.084 281.504C115.508 281.004 121.806 279.456 127.73 276.921C134.08 274.1 141.154 273.336 147.96 274.737C156.923 276.381 165.959 277.869 174.898 279.345C178.593 279.957 182.313 280.328 186.021 280.844C186.921 280.976 187.809 281.252 188.696 281.468L188.6 282.116C184.929 281.768 181.233 281.612 177.597 281.048C168.514 279.621 159.455 277.953 150.372 276.489C146.963 275.915 143.527 275.515 140.077 275.289C136.273 275.061 132.71 276.333 129.278 277.773C124.159 279.962 118.779 281.482 113.272 282.296C109.192 282.86 105.064 283.124 100.985 283.676C98.6996 283.929 96.4499 284.436 94.2773 285.188C90.6776 286.556 90.0057 288.788 91.8775 292.243C92.8283 294.216 94.3985 295.823 96.3484 296.82C98.2983 297.817 100.521 298.148 102.676 297.763C107.812 297.163 112.924 296.287 118.047 295.555C128.09 294.103 138.097 293.791 148.044 296.503C152.032 297.585 156.152 298.098 160.283 298.027C164.901 297.971 169.482 298.857 173.746 300.631C182.979 304.446 191.679 309.444 199.627 315.497C200.87 316.396 202.009 317.431 203.023 318.581C203.597 319.171 204.03 319.884 204.29 320.665C204.551 321.446 204.631 322.275 204.526 323.092C204.421 323.908 204.134 324.691 203.684 325.381C203.235 326.07 202.636 326.65 201.931 327.076C198.848 329.308 195.248 329.884 191.6 330.208C185.846 330.776 180.037 330.109 174.562 328.252C169.402 326.476 164.267 324.652 159.179 322.589C152.306 319.785 144.831 318.781 137.461 319.673C134.989 319.961 132.494 320.117 130.046 320.537C128.826 320.771 127.656 321.218 126.59 321.857C125.81 322.252 125.165 322.87 124.738 323.633C124.311 324.396 124.12 325.269 124.19 326.14C124.622 330.448 125.834 334.323 130.034 336.735C141.085 343.083 152.52 348.35 165.239 350.378C174.226 351.903 183.04 354.315 191.552 357.577C194.216 358.561 197.12 358.921 199.735 359.977C203.624 361.629 207.697 362.809 211.866 363.493C220.781 364.801 229.721 365.964 238.66 367.092C250.827 368.64 263.006 370.188 275.196 371.592C282.468 372.42 288.203 375.924 293.051 381.191C294.935 383.231 296.65 385.439 298.402 387.586C298.69 387.946 298.99 388.438 298.126 388.534H297.934Z" fill="url(#paint0_linear)" fill-opacity="0.8"/>
<path d="M474.354 351.014C472.194 348.074 470.07 345.122 467.874 342.219C453.308 322.853 440.697 302.238 428.974 281.024C419.735 264.322 410.496 247.596 399.733 231.829C395.845 226.13 391.586 220.67 387.254 215.295C379.991 206.386 370.395 199.673 359.537 195.904C349.997 192.378 340.163 189.704 330.151 187.913C322.254 186.583 314.146 187.345 306.634 190.121C304.952 190.726 303.216 191.168 301.45 191.441C303.259 189.309 305.634 187.732 308.301 186.893C315.457 184.273 323.185 183.619 330.679 184.997C342.987 187.124 354.987 190.75 366.412 195.796C374.125 199.302 381.017 204.387 386.642 210.723C394.861 219.998 402.121 230.08 408.312 240.816C416.943 255.439 425.342 270.185 433.51 285.056C445.596 307.113 459.111 328.357 473.97 348.65C477.894 353.951 482.415 358.783 487.445 363.049C509.762 382.143 531.632 401.741 553.054 421.843C553.678 422.443 554.254 423.043 554.926 423.643C561.85 429.487 564.861 437.382 565.281 445.997C565.893 458.332 569.697 469.455 575.696 480.05C578.096 484.213 580.148 488.545 582.2 492.877C586.207 501.36 586.351 510.107 583.58 518.962C581.271 526.919 577.323 534.305 571.989 540.644C568.389 544.844 564.333 548.707 560.446 552.643C559.361 553.81 558.035 554.725 556.559 555.324C555.083 555.923 553.493 556.192 551.903 556.111C547.103 555.907 542.303 555.823 537.504 555.403C533.63 555.085 530 553.381 527.281 550.603C521.281 544.448 514.262 539.564 507.195 534.777C502.983 531.921 498.652 529.233 494.212 526.761C486.143 522.258 478.998 516.269 473.154 509.111C467.027 501.721 461.438 493.902 456.427 485.713C453.56 480.914 450.248 476.462 447.128 471.855C441.381 463.347 435.357 455.056 429.91 446.321C420.527 431.346 410.696 416.684 400.417 402.333C388.838 386.075 377.619 369.612 366.88 352.742C352.481 330.064 337.075 308.034 322.1 285.728C321.574 284.983 321.139 284.177 320.804 283.328C323.824 285.309 326.435 287.85 328.495 290.816C331.759 295.195 335.095 299.551 338.167 304.014C349.062 320.057 360.304 335.871 370.564 352.31C380.823 368.748 391.562 384.431 402.805 399.993C415.403 417.428 427.186 435.39 438.621 453.604C441.621 458.404 445.065 462.903 448.22 467.595C452.42 473.786 456.619 479.978 460.699 486.253C466.771 495.6 473.178 504.684 480.965 512.651C485.13 516.915 489.891 520.552 495.1 523.45C504.719 528.876 513.891 535.059 522.529 541.94C524.381 543.313 526.118 544.834 527.725 546.488C529.209 548.198 531.021 549.595 533.052 550.596C535.084 551.598 537.295 552.183 539.556 552.319C544.043 552.607 548.555 552.619 553.066 552.535C554.399 552.492 555.683 552.03 556.738 551.215C568.053 541.868 577.136 530.877 580.952 516.346C583.06 509.285 582.636 501.71 579.752 494.928C578.132 491.245 576.332 487.633 574.568 484.009C572.433 479.618 570.117 475.298 568.113 470.811C564.894 463.603 563.191 455.81 563.109 447.917C562.999 443.5 562.139 439.134 560.566 435.006C559.377 431.747 557.447 428.81 554.926 426.427C545.483 417.56 536.22 408.501 526.633 399.789C512.922 387.335 499.087 375.016 485.129 362.833C465.607 345.77 444.957 330.136 424.294 314.501C415.655 307.962 407.208 301.123 399.097 293.899C393.541 288.932 388.802 283.1 383.69 277.593C376.491 269.889 369.292 262.162 361.996 254.519C354.648 246.9 345.886 240.787 336.199 236.521C327.496 232.797 319.975 226.769 314.445 219.086C307.581 209.355 300.97 199.468 294.215 189.677C290.339 184.073 286.391 178.518 282.492 172.879C279.753 168.899 275.959 165.762 271.537 163.819C263.978 160.508 256.466 157.1 248.823 154.004C240.124 150.405 231.305 147.225 222.521 143.853C221.651 143.479 220.709 143.298 219.762 143.325C222.161 145.053 224.561 146.757 226.961 148.521C234.249 154.016 241.017 160.169 247.179 166.903C252.207 172.291 257.522 177.438 262.718 182.682C263.15 183.064 263.607 183.416 264.085 183.738L263.762 184.205C263.137 183.934 262.535 183.613 261.962 183.246C260.028 181.83 258.181 180.299 256.43 178.662C252.975 175.194 249.627 171.619 246.339 167.995C236.329 156.817 224.544 147.367 211.458 140.026C206.959 137.447 202.149 135.455 197.144 134.098C195.28 133.512 193.298 133.407 191.382 133.793C189.467 134.179 187.68 135.043 186.189 136.306L190.988 138.202C200.951 142.086 210.021 147.952 217.65 155.444C224.213 161.9 230.441 168.643 236.848 175.338C239.968 178.59 243.003 181.938 246.219 185.093C249.171 187.973 252.303 190.637 255.146 193.205C254.483 193.226 253.822 193.112 253.203 192.871C252.584 192.63 252.021 192.266 251.547 191.801C249.548 190.315 247.656 188.691 245.883 186.941C240.604 181.494 235.372 175.998 230.285 170.419C224.398 163.836 218.094 157.64 211.41 151.868C204.41 146.151 196.523 141.616 188.061 138.442C186.987 138.022 185.879 137.697 184.749 137.47C183.273 137.17 182.349 137.806 182.589 139.246C182.809 140.846 183.369 142.38 184.233 143.745C186.197 146.591 188.345 149.304 190.664 151.868C199.831 161.948 209.107 171.931 218.334 181.95C225.667 189.961 232.105 198.748 237.532 208.155C244.973 220.818 253.427 232.856 262.814 244.152C271.801 255.035 282.864 263.35 295.211 270.117C301.774 273.717 308.409 277.137 315.021 280.652C316.41 281.357 317.687 282.263 318.812 283.34C318.409 283.366 318.003 283.326 317.613 283.22C303.778 276.333 289.847 269.65 277.5 260.158C267.721 252.647 259.922 243.36 252.783 233.401C246.107 224.37 239.93 214.981 234.28 205.275C229.528 197.15 223.842 189.607 217.338 182.802C209.635 174.486 201.859 166.255 194.228 157.88C190.556 153.848 187.113 149.589 183.645 145.353C182.151 143.706 181.299 141.577 181.245 139.354C181.245 137.182 181.845 136.27 184.005 136.126C185.205 136.054 185.541 135.178 186.273 134.674C186.753 134.35 187.269 134.086 187.761 133.786C188.253 133.486 188.685 133.198 189.416 132.718L186.741 131.23C182.433 128.927 178.066 126.707 173.806 124.295C166.624 120.163 160.506 114.411 155.94 107.497C147.401 94.6478 140.832 80.5935 136.453 65.8005C133.022 54.7136 129.734 43.5786 125.954 32.6236C123.555 25.7483 120.519 19.1009 117.555 12.4655C114.651 6.02212 109.156 3.0704 102.425 1.89451C97.8344 1.17512 93.1341 1.78294 88.8779 3.64634C86.7421 4.49826 84.5703 5.27819 82.3625 5.91413C78.8588 6.93404 75.3192 6.3101 71.8035 5.79414C70.7596 5.65016 69.7277 5.45818 68.6718 5.35018C67.4356 5.17312 66.1747 5.37402 65.0548 5.9265C63.9349 6.47898 63.0081 7.35721 62.3964 8.4459C59.0487 13.6414 57.0209 14.1454 51.7174 11.2176C50.0591 10.1865 48.1859 9.55058 46.2426 9.35917C44.2993 9.16775 42.338 9.42593 40.5104 10.1137C40.8794 9.38507 41.4587 8.78394 42.1732 8.38818C42.8877 7.99242 43.7046 7.82024 44.518 7.89395C47.0393 7.87287 49.5218 8.5142 51.7174 9.75377C52.8333 10.3177 53.9492 10.8577 55.089 11.3736C55.7827 11.7254 56.577 11.8255 57.3362 11.657C58.0955 11.4885 58.7729 11.0618 59.2527 10.4497C60.1106 9.5395 60.8819 8.55132 61.5564 7.49798C63.3443 4.47427 66.08 3.64634 69.4037 4.04231C70.3516 4.1623 71.3115 4.27029 72.2474 4.47427C77.2504 5.60151 82.4864 5.02724 87.126 2.84242C90.312 1.24603 93.7823 0.295869 97.3371 0.0466807C100.512 -0.146407 103.696 0.26066 106.72 1.24657C112.084 3.0944 116.319 6.20211 118.995 11.4336C123.88 21.439 127.957 31.8192 131.186 42.4747C134.378 52.6258 137.293 62.8728 140.581 72.9879C144.304 84.0999 149.381 94.7109 155.7 104.581C161.112 113.37 168.798 120.533 177.946 125.315C182.025 127.463 186.081 129.647 190.16 131.782C190.732 132.114 191.373 132.307 192.032 132.346C196.568 132.392 201.027 133.519 205.039 135.634C210.702 138.43 216.678 140.434 222.557 142.641C236.524 148.017 250.491 153.44 264.277 159.164C278.676 165.163 279.96 166.423 288.887 179.286C295.883 189.389 302.638 199.684 309.621 209.751C312.285 213.615 315.189 217.334 318.14 220.994C322.702 226.735 328.574 231.298 335.263 234.301C347.137 239.59 357.803 247.255 366.604 256.823C376.623 267.694 386.414 278.769 396.481 289.58C399.89 293.227 403.577 296.605 407.508 299.683C418.727 308.55 430.126 317.165 441.417 325.948C451.484 333.783 461.491 341.703 471.534 349.598L473.934 351.494L474.354 351.014Z" fill="url(#paint1_linear)" fill-opacity="0.8"/>
<path d="M297.91 388.523C300.022 393.238 302.566 397.81 303.502 402.921C304.702 409.437 305.973 415.94 306.705 422.503C308.265 436.506 309.753 450.533 310.797 464.584C312.069 481.614 313.061 498.66 313.773 515.723C314.469 532.113 314.481 548.528 315.105 564.918C315.741 581.717 316.664 598.515 320.108 614.965C323.027 628.082 327.21 640.885 332.599 653.194C337.399 664.509 342.198 675.776 346.998 687.079C347.434 688.026 347.683 689.049 347.73 690.091C347.478 689.719 347.202 689.347 346.986 688.891C337.387 671.228 328.987 653.062 322.988 633.84C319.064 621.43 316.576 608.612 315.573 595.635C314.889 586.36 314.373 577.061 313.833 567.786C313.876 567.271 313.788 566.754 313.579 566.282C313.369 565.81 313.044 565.399 312.633 565.086C306.801 560.719 301.042 556.255 295.258 551.815C281.308 541.294 268.446 529.404 256.862 516.323C246.724 504.532 237.304 492.143 228.653 479.222C220.254 466.755 211.578 454.397 204.175 441.258C202.855 438.918 201.691 436.458 200.479 434.058C200.34 433.811 200.252 433.538 200.221 433.255C200.19 432.972 200.217 432.686 200.299 432.415L201.739 434.814C216.239 459.246 232.22 482.767 249.591 505.248C261.938 521.093 276.229 535.323 292.127 547.604C299.254 553.099 306.189 558.859 313.341 564.594C313.499 564.286 313.604 563.953 313.653 563.61C313.341 547.484 313.293 531.357 312.585 515.267C311.805 497.149 310.605 479.054 309.273 460.984C308.013 443.766 306.393 426.583 303.598 409.533C302.895 404.687 301.606 399.944 299.758 395.41C298.834 393.25 297.718 391.054 298.042 388.535C298.035 388.524 298.026 388.515 298.015 388.508C298.004 388.502 297.992 388.498 297.979 388.496C297.966 388.495 297.954 388.497 297.942 388.502C297.93 388.506 297.919 388.513 297.91 388.523Z" fill="url(#paint2_linear)" fill-opacity="0.8"/>
<path d="M66.0799 159.188C62.1443 158.624 58.8806 160.844 55.1489 160.592C58.2604 158.862 61.7221 157.857 65.276 157.652C66.8479 157.58 67.6758 158.372 67.6758 160.268C67.8032 162.844 67.5443 165.424 66.9079 167.923C65.2511 173.23 63.2921 178.438 61.0404 183.522C56.9968 192.521 52.7252 201.424 48.3336 210.255C44.844 217.284 38.9405 222.821 31.7031 225.854C26.3516 228.182 20.9042 230.437 15.4807 232.489C13.4952 233.177 11.4015 233.498 9.30124 233.437C4.06973 233.329 0.566056 229.837 0.038105 224.642C0.0227249 224.571 0.0107128 224.498 0.00210838 224.426C-0.0938826 217.707 3.09782 212.427 7.5374 207.783C6.21753 211.323 4.80166 214.827 3.60177 218.426C3.02125 220.249 2.74161 222.154 2.77385 224.066C2.71831 224.937 2.84799 225.81 3.15435 226.628C3.46071 227.445 3.93679 228.188 4.55123 228.809C5.16567 229.429 5.90452 229.911 6.71912 230.225C7.53372 230.539 8.40557 230.677 9.27724 230.629C11.0933 230.728 12.9104 230.455 14.6167 229.825C21.2641 227.102 27.9235 224.366 34.3549 221.198C38.6288 218.96 42.1287 215.485 44.398 211.227C48.3936 204.136 52.1492 196.901 55.7489 189.629C58.7606 183.534 61.4484 177.27 64.1481 171.043C65.9394 167.366 66.6111 163.244 66.0799 159.188Z" fill="url(#paint3_linear)" fill-opacity="0.8"/>
<path d="M188.385 267.79C187.614 267.315 186.872 266.794 186.165 266.23C173.302 254.735 160.443 243.22 147.588 231.685C145.969 230.233 144.229 228.721 143.989 226.309C143.532 222.971 143.903 219.572 145.069 216.41C145.813 214.539 146.916 214.191 148.74 215.03C149.518 215.404 150.268 215.833 150.984 216.314C168.19 227.509 185.217 238.98 200.959 252.191C207.787 257.914 214.158 264.19 220.794 270.189C221.889 271.184 222.802 272.361 223.493 273.669C222.891 273.364 222.317 273.007 221.777 272.601C219.198 270.309 216.594 268.041 214.098 265.654C199.855 251.999 184.101 240.288 167.818 229.201C162.119 225.313 156.36 221.51 150.6 217.694C149.58 217.022 148.452 216.494 147.204 215.822C146.748 216.494 146.149 217.022 146.077 217.526C145.705 220.262 145.345 223.01 145.237 225.769C145.237 227.497 146.436 228.757 147.636 229.897C152.436 234.421 157.235 239.016 162.131 243.444C169.462 250.067 176.914 256.559 184.281 263.134C185.829 264.502 187.257 265.978 188.745 267.418L188.385 267.79Z" fill="url(#paint4_linear)" fill-opacity="0.8"/>
<path d="M86.2742 138.37C87.882 136.39 89.3339 134.266 91.0737 132.454C97.8171 125.591 100.829 117.192 101.273 107.785C101.785 96.8656 102.185 85.9426 102.473 75.0156C102.741 59.5812 103.991 44.1795 106.216 28.9039C106.864 24.8363 107.416 20.7567 108.112 16.7011C108.256 15.6716 108.67 14.6987 109.312 13.8813C108.856 17.973 108.556 22.0766 107.932 26.1442C105.548 42.4647 104.293 58.9303 104.176 75.4236C104.021 84.4347 103.877 93.4219 103.541 102.457C103.468 108.988 102.47 115.476 100.577 121.727C99.4874 125.346 97.6518 128.697 95.1884 131.564C92.7249 134.43 89.6883 136.748 86.2742 138.37Z" fill="url(#paint5_linear)" fill-opacity="0.8"/>
<path d="M109.348 277.641C105.748 277.005 103.432 271.641 105.748 269.025C106.646 268.184 107.798 267.664 109.024 267.55C113.823 267.058 118.623 266.638 123.351 266.434C135.713 265.786 148.101 265.786 160.463 266.434C171.281 267.079 182.055 268.308 192.74 270.117L210.87 273.249C211.333 273.322 211.768 273.517 212.13 273.813C208.864 273.962 205.592 273.68 202.399 272.973C188.108 270.573 173.806 268.27 159.323 267.706C149.724 267.334 140.125 267.418 130.526 267.574C124.01 267.67 117.495 268.234 110.992 268.594C110.704 268.594 110.416 268.594 110.128 268.678C106.18 269.157 105.076 271.293 107.056 274.809C107.742 275.814 108.508 276.761 109.348 277.641Z" fill="url(#paint6_linear)" fill-opacity="0.8"/>
<path d="M301.786 829.757C303.384 831.368 305.083 832.875 306.873 834.268C310.413 836.668 314.18 838.852 317.768 841.228C322.724 844.515 327.595 847.911 332.503 851.259C332.971 851.583 333.427 851.943 333.871 852.303C335.873 854.041 338.271 855.261 340.855 855.855C343.439 856.449 346.129 856.399 348.689 855.71C351.665 854.966 354.689 854.379 357.616 853.491C362.725 852.013 367.248 848.986 370.563 844.827C370.926 844.341 371.428 843.977 372.003 843.784C371.682 844.522 371.321 845.243 370.923 845.943C367.332 851.37 361.781 855.196 355.433 856.622C352.745 857.318 349.997 857.75 347.249 858.206C341.154 859.214 336.186 856.718 331.723 852.915C325.858 848.121 319.627 843.792 313.089 839.968C310.881 838.612 308.721 837.196 306.609 835.696C305.419 834.886 304.325 833.944 303.345 832.889C302.63 831.942 302 830.934 301.462 829.877L301.786 829.757Z" fill="url(#paint7_linear)" fill-opacity="0.8"/>
<path d="M52.6172 27.1881C53.5412 23.1685 51.7413 19.2688 52.5572 15.1892C52.8006 15.5934 52.9863 16.0296 53.1092 16.4851C53.4932 19.4248 53.8531 22.3645 54.1531 25.3163C54.3079 25.8779 54.2661 26.4755 54.0348 27.0101C53.8035 27.5447 53.3965 27.9843 52.8812 28.256C52.3516 28.4879 51.764 28.5535 51.1962 28.4442C50.6285 28.335 50.1073 28.0559 49.7015 27.644C48.346 26.5697 47.1001 25.3639 45.9819 24.0444C43.8209 21.2966 41.8178 18.4283 39.9824 15.4532C41.6737 16.2804 43.0994 17.5648 44.098 19.1608C45.6459 21.1167 47.0978 23.1445 48.7176 25.0283C49.1684 25.6533 49.7517 26.171 50.4259 26.5443C51.1 26.9177 51.8483 27.1375 52.6172 27.1881Z" fill="url(#paint8_linear)" fill-opacity="0.8"/>
<path d="M28.9075 181.686C28.8473 178.604 29.9354 175.61 31.9601 173.286C33.9848 170.962 36.8015 169.474 39.8624 169.111C37.3787 171.031 34.9069 172.411 33.1551 174.426C31.4032 176.442 30.3833 179.082 28.9075 181.686Z" fill="url(#paint9_linear)" fill-opacity="0.8"/>
<defs>
<linearGradient id="paint0_linear" x1="225.547" y1="234.978" x2="225.547" y2="926" gradientUnits="userSpaceOnUse">
<stop stop-color="#D6B7E4" stop-opacity="0.9"/>
<stop offset="1" stop-color="#3B8ECD" stop-opacity="0"/>
</linearGradient>
<linearGradient id="paint1_linear" x1="312.987" y1="0" x2="312.987" y2="556.125" gradientUnits="userSpaceOnUse">
<stop stop-color="#D6B7E4" stop-opacity="0.9"/>
<stop offset="1" stop-color="#3B8ECD" stop-opacity="0"/>
</linearGradient>
<linearGradient id="paint2_linear" x1="273.969" y1="388.496" x2="273.969" y2="690.091" gradientUnits="userSpaceOnUse">
<stop stop-color="#D6B7E4" stop-opacity="0.9"/>
<stop offset="1" stop-color="#3B8ECD" stop-opacity="0"/>
</linearGradient>
<linearGradient id="paint3_linear" x1="33.8537" y1="157.648" x2="33.8537" y2="233.444" gradientUnits="userSpaceOnUse">
<stop stop-color="#D6B7E4" stop-opacity="0.9"/>
<stop offset="1" stop-color="#3B8ECD" stop-opacity="0"/>
</linearGradient>
<linearGradient id="paint4_linear" x1="183.646" y1="214.599" x2="183.646" y2="273.669" gradientUnits="userSpaceOnUse">
<stop stop-color="#D6B7E4" stop-opacity="0.9"/>
<stop offset="1" stop-color="#3B8ECD" stop-opacity="0"/>
</linearGradient>
<linearGradient id="paint5_linear" x1="97.7931" y1="13.8813" x2="97.7931" y2="138.37" gradientUnits="userSpaceOnUse">
<stop stop-color="#D6B7E4" stop-opacity="0.9"/>
<stop offset="1" stop-color="#3B8ECD" stop-opacity="0"/>
</linearGradient>
<linearGradient id="paint6_linear" x1="158.474" y1="265.948" x2="158.474" y2="277.641" gradientUnits="userSpaceOnUse">
<stop stop-color="#D6B7E4" stop-opacity="0.9"/>
<stop offset="1" stop-color="#3B8ECD" stop-opacity="0"/>
</linearGradient>
<linearGradient id="paint7_linear" x1="336.732" y1="829.757" x2="336.732" y2="858.431" gradientUnits="userSpaceOnUse">
<stop stop-color="#D6B7E4" stop-opacity="0.9"/>
<stop offset="1" stop-color="#3B8ECD" stop-opacity="0"/>
</linearGradient>
<linearGradient id="paint8_linear" x1="47.1137" y1="15.1892" x2="47.1137" y2="28.4957" gradientUnits="userSpaceOnUse">
<stop stop-color="#D6B7E4" stop-opacity="0.9"/>
<stop offset="1" stop-color="#3B8ECD" stop-opacity="0"/>
</linearGradient>
<linearGradient id="paint9_linear" x1="34.3838" y1="169.111" x2="34.3838" y2="181.686" gradientUnits="userSpaceOnUse">
<stop stop-color="#D6B7E4" stop-opacity="0.9"/>
<stop offset="1" stop-color="#3B8ECD" stop-opacity="0"/>
</linearGradient>
</defs>
</svg>
