<svg width="229" height="40" viewBox="0 0 229 40" fill="none" xmlns="http://www.w3.org/2000/svg">
<path d="M67.024 16.2V26H65.526L60.122 19.364V26H58.316V16.2H59.814L65.218 22.836V16.2H67.024ZM72.842 26.098C72.086 26.098 71.4047 25.9347 70.798 25.608C70.1913 25.2813 69.7153 24.8287 69.37 24.25C69.034 23.662 68.866 22.9993 68.866 22.262C68.866 21.5247 69.034 20.8667 69.37 20.288C69.7153 19.7093 70.1913 19.2567 70.798 18.93C71.4047 18.6033 72.086 18.44 72.842 18.44C73.6073 18.44 74.2933 18.6033 74.9 18.93C75.5067 19.2567 75.978 19.7093 76.314 20.288C76.6593 20.8667 76.832 21.5247 76.832 22.262C76.832 22.9993 76.6593 23.662 76.314 24.25C75.978 24.8287 75.5067 25.2813 74.9 25.608C74.2933 25.9347 73.6073 26.098 72.842 26.098ZM72.842 24.6C73.486 24.6 74.018 24.3853 74.438 23.956C74.858 23.5267 75.068 22.962 75.068 22.262C75.068 21.562 74.858 20.9973 74.438 20.568C74.018 20.1387 73.486 19.924 72.842 19.924C72.198 19.924 71.666 20.1387 71.246 20.568C70.8353 20.9973 70.63 21.562 70.63 22.262C70.63 22.962 70.8353 23.5267 71.246 23.956C71.666 24.3853 72.198 24.6 72.842 24.6ZM85.8046 26.098C85.0299 26.098 84.3346 25.9347 83.7186 25.608C83.1026 25.2813 82.6219 24.8287 82.2766 24.25C81.9312 23.662 81.7586 22.9993 81.7586 22.262C81.7586 21.5247 81.9312 20.8667 82.2766 20.288C82.6219 19.7093 83.0979 19.2567 83.7046 18.93C84.3206 18.6033 85.0206 18.44 85.8046 18.44C86.5419 18.44 87.1859 18.5893 87.7366 18.888C88.2966 19.1867 88.7166 19.616 88.9966 20.176L87.6526 20.96C87.4379 20.6147 87.1672 20.358 86.8406 20.19C86.5232 20.0127 86.1732 19.924 85.7906 19.924C85.1372 19.924 84.5959 20.1387 84.1666 20.568C83.7372 20.988 83.5226 21.5527 83.5226 22.262C83.5226 22.9713 83.7326 23.5407 84.1526 23.97C84.5819 24.39 85.1279 24.6 85.7906 24.6C86.1732 24.6 86.5232 24.516 86.8406 24.348C87.1672 24.1707 87.4379 23.9093 87.6526 23.564L88.9966 24.348C88.7072 24.908 88.2826 25.342 87.7226 25.65C87.1719 25.9487 86.5326 26.098 85.8046 26.098ZM92.1753 19.616C92.6793 18.832 93.566 18.44 94.8353 18.44V20.106C94.686 20.078 94.5507 20.064 94.4293 20.064C93.748 20.064 93.216 20.2647 92.8333 20.666C92.4507 21.058 92.2593 21.6273 92.2593 22.374V26H90.5093V18.524H92.1753V19.616ZM103.28 22.304C103.28 22.4253 103.27 22.598 103.252 22.822H97.3855C97.4882 23.3727 97.7542 23.8113 98.1835 24.138C98.6222 24.4553 99.1635 24.614 99.8075 24.614C100.629 24.614 101.306 24.3433 101.838 23.802L102.776 24.88C102.44 25.2813 102.015 25.5847 101.502 25.79C100.988 25.9953 100.41 26.098 99.7655 26.098C98.9442 26.098 98.2208 25.9347 97.5955 25.608C96.9702 25.2813 96.4848 24.8287 96.1395 24.25C95.8035 23.662 95.6355 22.9993 95.6355 22.262C95.6355 21.534 95.7988 20.8807 96.1255 20.302C96.4615 19.714 96.9235 19.2567 97.5115 18.93C98.0995 18.6033 98.7622 18.44 99.4995 18.44C100.228 18.44 100.876 18.6033 101.446 18.93C102.024 19.2473 102.472 19.7 102.79 20.288C103.116 20.8667 103.28 21.5387 103.28 22.304ZM99.4995 19.84C98.9395 19.84 98.4635 20.008 98.0715 20.344C97.6888 20.6707 97.4555 21.1093 97.3715 21.66H101.614C101.539 21.1187 101.31 20.68 100.928 20.344C100.545 20.008 100.069 19.84 99.4995 19.84ZM112.283 15.612V26H110.603V25.034C110.313 25.3887 109.954 25.6547 109.525 25.832C109.105 26.0093 108.638 26.098 108.125 26.098C107.406 26.098 106.757 25.9393 106.179 25.622C105.609 25.3047 105.161 24.8567 104.835 24.278C104.508 23.69 104.345 23.018 104.345 22.262C104.345 21.506 104.508 20.8387 104.835 20.26C105.161 19.6813 105.609 19.2333 106.179 18.916C106.757 18.5987 107.406 18.44 108.125 18.44C108.619 18.44 109.072 18.524 109.483 18.692C109.893 18.86 110.243 19.112 110.533 19.448V15.612H112.283ZM108.335 24.6C108.755 24.6 109.133 24.5067 109.469 24.32C109.805 24.124 110.071 23.8487 110.267 23.494C110.463 23.1393 110.561 22.7287 110.561 22.262C110.561 21.7953 110.463 21.3847 110.267 21.03C110.071 20.6753 109.805 20.4047 109.469 20.218C109.133 20.022 108.755 19.924 108.335 19.924C107.915 19.924 107.537 20.022 107.201 20.218C106.865 20.4047 106.599 20.6753 106.403 21.03C106.207 21.3847 106.109 21.7953 106.109 22.262C106.109 22.7287 106.207 23.1393 106.403 23.494C106.599 23.8487 106.865 24.124 107.201 24.32C107.537 24.5067 107.915 24.6 108.335 24.6ZM114.572 18.524H116.322V26H114.572V18.524ZM115.454 17.292C115.136 17.292 114.87 17.194 114.656 16.998C114.441 16.7927 114.334 16.5407 114.334 16.242C114.334 15.9433 114.441 15.696 114.656 15.5C114.87 15.2947 115.136 15.192 115.454 15.192C115.771 15.192 116.037 15.29 116.252 15.486C116.466 15.6727 116.574 15.9107 116.574 16.2C116.574 16.508 116.466 16.7693 116.252 16.984C116.046 17.1893 115.78 17.292 115.454 17.292ZM123.113 25.594C122.907 25.762 122.655 25.888 122.357 25.972C122.067 26.056 121.759 26.098 121.433 26.098C120.611 26.098 119.977 25.8833 119.529 25.454C119.081 25.0247 118.857 24.3993 118.857 23.578V19.98H117.625V18.58H118.857V16.872H120.607V18.58H122.609V19.98H120.607V23.536C120.607 23.9 120.695 24.18 120.873 24.376C121.05 24.5627 121.307 24.656 121.643 24.656C122.035 24.656 122.361 24.5533 122.623 24.348L123.113 25.594ZM131.851 26.098C131.077 26.098 130.381 25.9347 129.765 25.608C129.149 25.2813 128.669 24.8287 128.323 24.25C127.978 23.662 127.805 22.9993 127.805 22.262C127.805 21.5247 127.978 20.8667 128.323 20.288C128.669 19.7093 129.145 19.2567 129.751 18.93C130.367 18.6033 131.067 18.44 131.851 18.44C132.589 18.44 133.233 18.5893 133.783 18.888C134.343 19.1867 134.763 19.616 135.043 20.176L133.699 20.96C133.485 20.6147 133.214 20.358 132.887 20.19C132.57 20.0127 132.22 19.924 131.837 19.924C131.184 19.924 130.643 20.1387 130.213 20.568C129.784 20.988 129.569 21.5527 129.569 22.262C129.569 22.9713 129.779 23.5407 130.199 23.97C130.629 24.39 131.175 24.6 131.837 24.6C132.22 24.6 132.57 24.516 132.887 24.348C133.214 24.1707 133.485 23.9093 133.699 23.564L135.043 24.348C134.754 24.908 134.329 25.342 133.769 25.65C133.219 25.9487 132.579 26.098 131.851 26.098ZM139.412 18.44C140.514 18.44 141.354 18.706 141.932 19.238C142.52 19.7607 142.814 20.554 142.814 21.618V26H141.162V25.09C140.948 25.4167 140.64 25.6687 140.238 25.846C139.846 26.014 139.37 26.098 138.81 26.098C138.25 26.098 137.76 26.0047 137.34 25.818C136.92 25.622 136.594 25.356 136.36 25.02C136.136 24.6747 136.024 24.2873 136.024 23.858C136.024 23.186 136.272 22.6493 136.766 22.248C137.27 21.8373 138.059 21.632 139.132 21.632H141.064V21.52C141.064 20.9973 140.906 20.596 140.588 20.316C140.28 20.036 139.818 19.896 139.202 19.896C138.782 19.896 138.367 19.9613 137.956 20.092C137.555 20.2227 137.214 20.4047 136.934 20.638L136.248 19.364C136.64 19.0653 137.112 18.8367 137.662 18.678C138.213 18.5193 138.796 18.44 139.412 18.44ZM139.174 24.824C139.613 24.824 140 24.726 140.336 24.53C140.682 24.3247 140.924 24.0353 141.064 23.662V22.794H139.258C138.25 22.794 137.746 23.1253 137.746 23.788C137.746 24.1053 137.872 24.3573 138.124 24.544C138.376 24.7307 138.726 24.824 139.174 24.824ZM146.726 19.616C147.23 18.832 148.117 18.44 149.386 18.44V20.106C149.237 20.078 149.101 20.064 148.98 20.064C148.299 20.064 147.767 20.2647 147.384 20.666C147.001 21.058 146.81 21.6273 146.81 22.374V26H145.06V18.524H146.726V19.616ZM158.124 15.612V26H156.444V25.034C156.155 25.3887 155.796 25.6547 155.366 25.832C154.946 26.0093 154.48 26.098 153.966 26.098C153.248 26.098 152.599 25.9393 152.02 25.622C151.451 25.3047 151.003 24.8567 150.676 24.278C150.35 23.69 150.186 23.018 150.186 22.262C150.186 21.506 150.35 20.8387 150.676 20.26C151.003 19.6813 151.451 19.2333 152.02 18.916C152.599 18.5987 153.248 18.44 153.966 18.44C154.461 18.44 154.914 18.524 155.324 18.692C155.735 18.86 156.085 19.112 156.374 19.448V15.612H158.124ZM154.176 24.6C154.596 24.6 154.974 24.5067 155.31 24.32C155.646 24.124 155.912 23.8487 156.108 23.494C156.304 23.1393 156.402 22.7287 156.402 22.262C156.402 21.7953 156.304 21.3847 156.108 21.03C155.912 20.6753 155.646 20.4047 155.31 20.218C154.974 20.022 154.596 19.924 154.176 19.924C153.756 19.924 153.378 20.022 153.042 20.218C152.706 20.4047 152.44 20.6753 152.244 21.03C152.048 21.3847 151.95 21.7953 151.95 22.262C151.95 22.7287 152.048 23.1393 152.244 23.494C152.44 23.8487 152.706 24.124 153.042 24.32C153.378 24.5067 153.756 24.6 154.176 24.6ZM165.949 19.616C166.453 18.832 167.339 18.44 168.609 18.44V20.106C168.459 20.078 168.324 20.064 168.203 20.064C167.521 20.064 166.989 20.2647 166.607 20.666C166.224 21.058 166.033 21.6273 166.033 22.374V26H164.283V18.524H165.949V19.616ZM177.053 22.304C177.053 22.4253 177.044 22.598 177.025 22.822H171.159C171.262 23.3727 171.528 23.8113 171.957 24.138C172.396 24.4553 172.937 24.614 173.581 24.614C174.402 24.614 175.079 24.3433 175.611 23.802L176.549 24.88C176.213 25.2813 175.788 25.5847 175.275 25.79C174.762 25.9953 174.183 26.098 173.539 26.098C172.718 26.098 171.994 25.9347 171.369 25.608C170.744 25.2813 170.258 24.8287 169.913 24.25C169.577 23.662 169.409 22.9993 169.409 22.262C169.409 21.534 169.572 20.8807 169.899 20.302C170.235 19.714 170.697 19.2567 171.285 18.93C171.873 18.6033 172.536 18.44 173.273 18.44C174.001 18.44 174.65 18.6033 175.219 18.93C175.798 19.2473 176.246 19.7 176.563 20.288C176.89 20.8667 177.053 21.5387 177.053 22.304ZM173.273 19.84C172.713 19.84 172.237 20.008 171.845 20.344C171.462 20.6707 171.229 21.1093 171.145 21.66H175.387C175.312 21.1187 175.084 20.68 174.701 20.344C174.318 20.008 173.842 19.84 173.273 19.84ZM186.042 18.524V28.716H184.292V25.09C183.704 25.762 182.906 26.098 181.898 26.098C181.17 26.098 180.517 25.9393 179.938 25.622C179.369 25.3047 178.921 24.8567 178.594 24.278C178.277 23.6993 178.118 23.0273 178.118 22.262C178.118 21.506 178.281 20.8387 178.608 20.26C178.935 19.6813 179.383 19.2333 179.952 18.916C180.521 18.5987 181.17 18.44 181.898 18.44C182.411 18.44 182.878 18.5287 183.298 18.706C183.727 18.8833 184.087 19.1493 184.376 19.504V18.524H186.042ZM182.094 24.6C182.738 24.6 183.27 24.3853 183.69 23.956C184.11 23.5267 184.32 22.962 184.32 22.262C184.32 21.562 184.11 20.9973 183.69 20.568C183.27 20.1387 182.738 19.924 182.094 19.924C181.45 19.924 180.918 20.1387 180.498 20.568C180.087 20.9973 179.882 21.562 179.882 22.262C179.882 22.962 180.087 23.5267 180.498 23.956C180.918 24.3853 181.45 24.6 182.094 24.6ZM195.57 18.524V26H193.904V25.048C193.624 25.384 193.274 25.6453 192.854 25.832C192.434 26.0093 191.981 26.098 191.496 26.098C190.497 26.098 189.708 25.8227 189.13 25.272C188.56 24.712 188.276 23.886 188.276 22.794V18.524H190.026V22.556C190.026 23.228 190.175 23.732 190.474 24.068C190.782 24.3947 191.216 24.558 191.776 24.558C192.401 24.558 192.896 24.3667 193.26 23.984C193.633 23.592 193.82 23.032 193.82 22.304V18.524H195.57ZM197.861 18.524H199.611V26H197.861V18.524ZM198.743 17.292C198.426 17.292 198.16 17.194 197.945 16.998C197.73 16.7927 197.623 16.5407 197.623 16.242C197.623 15.9433 197.73 15.696 197.945 15.5C198.16 15.2947 198.426 15.192 198.743 15.192C199.06 15.192 199.326 15.29 199.541 15.486C199.756 15.6727 199.863 15.9107 199.863 16.2C199.863 16.508 199.756 16.7693 199.541 16.984C199.336 17.1893 199.07 17.292 198.743 17.292ZM203.574 19.616C204.078 18.832 204.964 18.44 206.234 18.44V20.106C206.084 20.078 205.949 20.064 205.828 20.064C205.146 20.064 204.614 20.2647 204.232 20.666C203.849 21.058 203.658 21.6273 203.658 22.374V26H201.908V18.524H203.574V19.616ZM214.678 22.304C214.678 22.4253 214.669 22.598 214.65 22.822H208.784C208.887 23.3727 209.153 23.8113 209.582 24.138C210.021 24.4553 210.562 24.614 211.206 24.614C212.027 24.614 212.704 24.3433 213.236 23.802L214.174 24.88C213.838 25.2813 213.413 25.5847 212.9 25.79C212.387 25.9953 211.808 26.098 211.164 26.098C210.343 26.098 209.619 25.9347 208.994 25.608C208.369 25.2813 207.883 24.8287 207.538 24.25C207.202 23.662 207.034 22.9993 207.034 22.262C207.034 21.534 207.197 20.8807 207.524 20.302C207.86 19.714 208.322 19.2567 208.91 18.93C209.498 18.6033 210.161 18.44 210.898 18.44C211.626 18.44 212.275 18.6033 212.844 18.93C213.423 19.2473 213.871 19.7 214.188 20.288C214.515 20.8667 214.678 21.5387 214.678 22.304ZM210.898 19.84C210.338 19.84 209.862 20.008 209.47 20.344C209.087 20.6707 208.854 21.1093 208.77 21.66H213.012C212.937 21.1187 212.709 20.68 212.326 20.344C211.943 20.008 211.467 19.84 210.898 19.84ZM223.681 15.612V26H222.001V25.034C221.712 25.3887 221.352 25.6547 220.923 25.832C220.503 26.0093 220.036 26.098 219.523 26.098C218.804 26.098 218.156 25.9393 217.577 25.622C217.008 25.3047 216.56 24.8567 216.233 24.278C215.906 23.69 215.743 23.018 215.743 22.262C215.743 21.506 215.906 20.8387 216.233 20.26C216.56 19.6813 217.008 19.2333 217.577 18.916C218.156 18.5987 218.804 18.44 219.523 18.44C220.018 18.44 220.47 18.524 220.881 18.692C221.292 18.86 221.642 19.112 221.931 19.448V15.612H223.681ZM219.733 24.6C220.153 24.6 220.531 24.5067 220.867 24.32C221.203 24.124 221.469 23.8487 221.665 23.494C221.861 23.1393 221.959 22.7287 221.959 22.262C221.959 21.7953 221.861 21.3847 221.665 21.03C221.469 20.6753 221.203 20.4047 220.867 20.218C220.531 20.022 220.153 19.924 219.733 19.924C219.313 19.924 218.935 20.022 218.599 20.218C218.263 20.4047 217.997 20.6753 217.801 21.03C217.605 21.3847 217.507 21.7953 217.507 22.262C217.507 22.7287 217.605 23.1393 217.801 23.494C217.997 23.8487 218.263 24.124 218.599 24.32C218.935 24.5067 219.313 24.6 219.733 24.6ZM225.746 16.2H227.818L227.468 22.752H226.082L225.746 16.2ZM226.782 26.098C226.456 26.098 226.185 25.9953 225.97 25.79C225.756 25.5753 225.648 25.314 225.648 25.006C225.648 24.698 225.756 24.4413 225.97 24.236C226.185 24.0307 226.456 23.928 226.782 23.928C227.1 23.928 227.361 24.0307 227.566 24.236C227.781 24.4413 227.888 24.698 227.888 25.006C227.888 25.314 227.781 25.5753 227.566 25.79C227.361 25.9953 227.1 26.098 226.782 26.098Z" fill="white"/>
<path d="M5.31993 22.1809V18.9828H12.4408L15.5701 22.1809H5.31993ZM36.734 34.4933L40.0278 37.7871L37.8153 40L0.0281154 2.21287L2.24068 0L7.52332 5.28234H35.3619C37.9503 5.28234 40.0559 7.38824 40.0559 9.97639V30.0044C40.0559 32.1155 38.655 33.9051 36.734 34.4933ZM10.6527 8.41171L14.2609 12.02H36.9266V9.97639C36.9266 9.11368 36.2246 8.41171 35.3619 8.41171H10.6527ZM36.9266 30.0044V16.7045H18.9455L21.302 19.061H26.052V22.1809H24.4216L33.8097 31.569H35.3619C36.2246 31.569 36.9266 30.8671 36.9266 30.0044ZM4.69405 31.5785C3.83134 31.5785 3.12937 30.8671 3.12937 30.0044V16.7045H10.0494L5.35538 12.02H3.12937V9.97639C3.12937 9.91527 3.13365 9.85537 3.14068 9.79578L0.761867 7.41728C0.280849 8.15408 0 9.03269 0 9.97639V30.0044C0 32.5928 2.1056 34.6984 4.69405 34.6984H28.043L24.9136 31.5785H4.69405Z" fill="white"/>
</svg>
